<svg width="107" height="21" viewBox="0 0 107 21" fill="none" xmlns="http://www.w3.org/2000/svg">
<path opacity="0.6" fill-rule="evenodd" clip-rule="evenodd" d="M16.4763 1.0918V10.6172L0 20.1426V10.6172L16.4763 1.0918ZM32.9527 1.0918V10.6172L16.4763 20.1426V10.6172L32.9527 1.0918Z" fill="#0085FF"/>
<path fill-rule="evenodd" clip-rule="evenodd" d="M0 1.0918L16.4763 10.6172V20.1426L0 10.6172V1.0918ZM16.4763 1.0918L32.9527 10.6172V20.1426L16.4763 10.6172V1.0918Z" fill="#0085FF"/>
<path d="M41.7835 5.23257H43.7527V9.92488H43.8296C43.9937 9.49411 44.2501 9.13514 44.5989 8.84796C44.9578 8.55052 45.4501 8.4018 46.0758 8.4018C46.9066 8.4018 47.5425 8.6736 47.9835 9.21719C48.4245 9.76078 48.645 10.5351 48.645 11.5403V16.6172H46.6758V11.7403C46.6758 11.1659 46.5732 10.7351 46.3681 10.448C46.163 10.1608 45.8245 10.0172 45.3527 10.0172C45.1476 10.0172 44.9476 10.048 44.7527 10.1095C44.5681 10.1608 44.3989 10.2428 44.245 10.3556C44.1014 10.4582 43.9835 10.5915 43.8912 10.7556C43.7989 10.9095 43.7527 11.0941 43.7527 11.3095V16.6172H41.7835V5.23257ZM54.0741 16.8018C53.4792 16.8018 52.9459 16.7044 52.4741 16.5095C52.0126 16.3044 51.6177 16.0223 51.2895 15.6633C50.9715 15.2941 50.7254 14.8531 50.551 14.3403C50.3767 13.8172 50.2895 13.2326 50.2895 12.5864C50.2895 11.9505 50.3715 11.3762 50.5356 10.8633C50.71 10.3505 50.9562 9.91462 51.2741 9.55565C51.5921 9.18642 51.9818 8.90437 52.4433 8.7095C52.9049 8.50437 53.428 8.4018 54.0126 8.4018C54.6382 8.4018 55.1818 8.50949 55.6433 8.72488C56.1049 8.94026 56.4844 9.23257 56.7818 9.6018C57.0792 9.97103 57.2997 10.4018 57.4433 10.8941C57.5972 11.3762 57.6741 11.8941 57.6741 12.448V13.0941H52.3356V13.2941C52.3356 13.8787 52.4997 14.3505 52.828 14.7095C53.1562 15.0582 53.6433 15.2326 54.2895 15.2326C54.7818 15.2326 55.1818 15.13 55.4895 14.9249C55.8074 14.7198 56.0895 14.4582 56.3356 14.1403L57.3972 15.3249C57.069 15.7864 56.6177 16.1505 56.0433 16.4172C55.4792 16.6736 54.8228 16.8018 54.0741 16.8018ZM54.0433 9.87873C53.5203 9.87873 53.1049 10.0531 52.7972 10.4018C52.4895 10.7505 52.3356 11.2018 52.3356 11.7556V11.8787H55.628V11.7403C55.628 11.1864 55.4895 10.7403 55.2126 10.4018C54.9459 10.0531 54.5562 9.87873 54.0433 9.87873ZM61.3759 16.6172C60.699 16.6172 60.2015 16.448 59.8836 16.1095C59.5657 15.771 59.4067 15.2941 59.4067 14.6787V5.23257H61.3759V15.048H62.4374V16.6172H61.3759ZM64.9135 7.41719C64.5033 7.41719 64.2058 7.32488 64.0212 7.14026C63.8469 6.95565 63.7597 6.71975 63.7597 6.43257V6.12488C63.7597 5.8377 63.8469 5.6018 64.0212 5.41719C64.2058 5.23257 64.5033 5.14026 64.9135 5.14026C65.3135 5.14026 65.6058 5.23257 65.7905 5.41719C65.9751 5.6018 66.0674 5.8377 66.0674 6.12488V6.43257C66.0674 6.71975 65.9751 6.95565 65.7905 7.14026C65.6058 7.32488 65.3135 7.41719 64.9135 7.41719ZM63.9289 8.58642H65.8981V16.6172H63.9289V8.58642ZM67.3346 16.6172L70.073 12.5403L67.3961 8.58642H69.6423L71.3038 11.248H71.3653L73.0115 8.58642H75.1038L72.3807 12.571L75.1192 16.6172H72.873L71.1807 13.848H71.1192L69.4269 16.6172H67.3346ZM77.703 16.7864C77.2824 16.7864 76.9696 16.6839 76.7645 16.4787C76.5696 16.2633 76.4722 15.9915 76.4722 15.6633V15.3864C76.4722 15.0582 76.5696 14.7864 76.7645 14.571C76.9696 14.3556 77.2824 14.248 77.703 14.248C78.1337 14.248 78.4465 14.3556 78.6414 14.571C78.8363 14.7864 78.9337 15.0582 78.9337 15.3864V15.6633C78.9337 15.9915 78.8363 16.2633 78.6414 16.4787C78.4465 16.6839 78.1337 16.7864 77.703 16.7864ZM81.1465 5.23257H83.1157V9.9095H83.1772C83.3208 9.44796 83.5926 9.08385 83.9926 8.81719C84.3926 8.54026 84.8593 8.4018 85.3926 8.4018C86.4183 8.4018 87.1977 8.76591 87.7311 9.49411C88.2747 10.2121 88.5465 11.2428 88.5465 12.5864C88.5465 13.9403 88.2747 14.9813 87.7311 15.7095C87.1977 16.4377 86.4183 16.8018 85.3926 16.8018C84.8593 16.8018 84.3926 16.6633 83.9926 16.3864C83.6029 16.1095 83.3311 15.7403 83.1772 15.2787H83.1157V16.6172H81.1465V5.23257ZM84.7618 15.171C85.2747 15.171 85.6901 15.0018 86.008 14.6633C86.3259 14.3249 86.4849 13.8685 86.4849 13.2941V11.9095C86.4849 11.3351 86.3259 10.8787 86.008 10.5403C85.6901 10.1915 85.2747 10.0172 84.7618 10.0172C84.2901 10.0172 83.8952 10.1351 83.5772 10.371C83.2695 10.6069 83.1157 10.9198 83.1157 11.3095V13.8633C83.1157 14.2839 83.2695 14.6069 83.5772 14.8326C83.8952 15.0582 84.2901 15.171 84.7618 15.171ZM93.5558 16.8018C92.9815 16.8018 92.4635 16.7044 92.002 16.5095C91.5507 16.3146 91.161 16.0326 90.8328 15.6633C90.5148 15.2941 90.2687 14.8531 90.0943 14.3403C89.9199 13.8172 89.8328 13.2326 89.8328 12.5864C89.8328 11.9403 89.9199 11.3608 90.0943 10.848C90.2687 10.3351 90.5148 9.89924 90.8328 9.54026C91.161 9.17103 91.5507 8.88898 92.002 8.69411C92.4635 8.49924 92.9815 8.4018 93.5558 8.4018C94.1302 8.4018 94.6481 8.49924 95.1097 8.69411C95.5712 8.88898 95.961 9.17103 96.2789 9.54026C96.6071 9.89924 96.8584 10.3351 97.0328 10.848C97.2071 11.3608 97.2943 11.9403 97.2943 12.5864C97.2943 13.2326 97.2071 13.8172 97.0328 14.3403C96.8584 14.8531 96.6071 15.2941 96.2789 15.6633C95.961 16.0326 95.5712 16.3146 95.1097 16.5095C94.6481 16.7044 94.1302 16.8018 93.5558 16.8018ZM93.5558 15.2172C94.0789 15.2172 94.4892 15.0582 94.7866 14.7403C95.084 14.4223 95.2328 13.9556 95.2328 13.3403V11.848C95.2328 11.2428 95.084 10.7813 94.7866 10.4633C94.4892 10.1454 94.0789 9.98642 93.5558 9.98642C93.043 9.98642 92.6379 10.1454 92.3404 10.4633C92.043 10.7813 91.8943 11.2428 91.8943 11.848V13.3403C91.8943 13.9556 92.043 14.4223 92.3404 14.7403C92.6379 15.0582 93.043 15.2172 93.5558 15.2172ZM97.9686 16.6172L100.707 12.5403L98.0301 8.58642H100.276L101.938 11.248H101.999L103.646 8.58642H105.738L103.015 12.571L105.753 16.6172H103.507L101.815 13.848H101.753L100.061 16.6172H97.9686Z" fill="#0085FF"/>
</svg>
