<svg width="478" height="104" viewBox="0 0 478 104" fill="none" xmlns="http://www.w3.org/2000/svg">
<path fill-rule="evenodd" clip-rule="evenodd" d="M19.0018 47.6131C19.0018 60.761 24.319 72.6641 32.9156 81.2803L100.098 13.9464L100.118 13.9664C108.702 22.5811 114.011 34.4758 114.011 47.6131C114.011 73.9088 92.7425 95.2257 66.5064 95.2257C54.3472 95.2257 43.255 90.647 34.8525 83.1162L18.0599 100.749C14.0702 104.938 7.43996 105.1 3.25079 101.11C1.1749 99.1334 0 96.3919 0 93.5252L0 10.4753C0 4.69026 4.68971 0.000544144 10.4748 0.000544144L66.5058 0L65.7209 0.00692287C39.8471 0.427379 19.0018 21.5804 19.0018 47.6131ZM221.774 40.0999C221.774 44.0349 220.791 47.6785 218.823 51.0305C216.856 54.3826 214.214 57.0606 210.898 59.0646C207.583 61.0685 203.921 62.0705 199.913 62.0705H169.526V51.2491H199.913C202.974 51.2491 205.579 50.1379 207.728 47.9153C209.878 45.6927 210.953 43.0876 210.953 40.0999C210.953 37.0393 209.878 34.4341 207.728 32.2844C205.579 30.1347 202.974 29.0599 199.913 29.0599H163.842V78.3572H153.02V18.2385H199.913C203.921 18.2385 207.583 19.2223 210.898 21.1898C214.214 23.1573 216.856 25.7989 218.823 29.1145C220.791 32.4302 221.774 36.0919 221.774 40.0999ZM296.759 18.2385V48.2979C296.759 52.4515 295.975 56.3501 294.409 59.9937C292.842 63.6372 290.692 66.8254 287.96 69.558C285.227 72.2907 282.057 74.4404 278.45 76.0071C274.843 77.5739 270.962 78.3572 266.809 78.3572H260.797C256.643 78.3572 252.763 77.5739 249.156 76.0071C245.549 74.4404 242.379 72.2725 239.646 69.5034C236.913 66.7343 234.764 63.5462 233.197 59.939C231.63 56.3319 230.847 52.4515 230.847 48.2979V18.2385H241.777V48.2979C241.777 51.7957 242.634 55.002 244.346 57.9169C246.059 60.8317 248.354 63.1454 251.232 64.8578C254.111 66.5703 257.299 67.4265 260.797 67.4265H266.809C270.379 67.4265 273.586 66.5703 276.428 64.8578C279.27 63.1454 281.547 60.8317 283.259 57.9169C284.972 55.002 285.828 51.7957 285.828 48.2979V18.2385H296.759ZM382.674 60.4309C382.674 63.783 381.854 66.8071 380.214 69.5034C378.575 72.1996 376.407 74.3493 373.711 75.9525C371.014 77.5556 367.99 78.3572 364.638 78.3572H327.802V67.3172H364.638C366.606 67.3172 368.264 66.6432 369.612 65.2951C370.96 63.9469 371.634 62.3256 371.634 60.4309C371.634 58.4634 370.96 56.8056 369.612 55.4575C368.264 54.1093 366.606 53.4353 364.638 53.4353H327.802V42.3953H355.675C357.788 42.2496 359.592 41.5573 361.086 40.3185C362.58 39.0797 363.327 37.5494 363.327 35.7276C363.327 33.8329 362.652 32.248 361.304 30.9727C359.956 29.6975 358.335 29.0599 356.44 29.0599H322.664V78.3572H311.515V18.0199H356.44C359.719 18.0199 362.725 18.8033 365.458 20.37C368.191 21.9367 370.359 24.0682 371.962 26.7644C373.565 29.4607 374.367 32.4484 374.367 35.7276C374.367 37.2579 374.166 38.7153 373.765 40.0999C373.365 41.4844 372.8 42.7961 372.071 44.0349C375.205 45.4195 377.755 47.5874 379.723 50.5387C381.69 53.4899 382.674 56.7874 382.674 60.4309ZM456.893 29.0599H405.082V78.3572H394.042V18.0199H456.893V29.0599ZM449.788 53.4353H410.219V42.3953H449.788V53.4353ZM477.771 78.3572H466.949V18.2385H477.771V78.3572Z" fill="#7500FF"/>
</svg>
