<svg width="1200" height="600" viewBox="0 0 1200 600" fill="none" xmlns="http://www.w3.org/2000/svg">
<g clip-path="url(#clip0_80996_20798)">
<rect width="1200" height="600" fill="#00141D"/>
<path opacity="0.6" fill-rule="evenodd" clip-rule="evenodd" d="M353.215 199.204V263.5L242 327.797V263.5L353.215 199.204ZM464.431 199.204V263.5L353.215 327.797V263.5L464.431 199.204Z" fill="#0085FF"/>
<path fill-rule="evenodd" clip-rule="evenodd" d="M242 199.204L353.215 263.5V327.797L242 263.5V199.204ZM353.215 199.204L464.431 263.5V327.797L353.215 263.5V199.204Z" fill="#0085FF"/>
<path d="M524.038 225.154H537.33V256.827H537.85C538.957 253.919 540.688 251.496 543.042 249.558C545.465 247.55 548.788 246.546 553.011 246.546C558.619 246.546 562.911 248.381 565.888 252.05C568.865 255.719 570.354 260.946 570.354 267.731V302H557.061V269.081C557.061 265.204 556.369 262.296 554.984 260.358C553.6 258.419 551.315 257.45 548.13 257.45C546.746 257.45 545.396 257.658 544.08 258.073C542.834 258.419 541.692 258.973 540.654 259.735C539.684 260.427 538.888 261.327 538.265 262.435C537.642 263.473 537.33 264.719 537.33 266.173V302H524.038V225.154ZM607 303.246C602.984 303.246 599.384 302.588 596.2 301.273C593.084 299.888 590.419 297.985 588.204 295.562C586.058 293.069 584.396 290.092 583.219 286.631C582.042 283.1 581.454 279.154 581.454 274.792C581.454 270.5 582.008 266.623 583.115 263.162C584.292 259.7 585.954 256.758 588.1 254.335C590.246 251.842 592.877 249.938 595.992 248.623C599.108 247.238 602.638 246.546 606.584 246.546C610.808 246.546 614.477 247.273 617.592 248.727C620.708 250.181 623.269 252.154 625.277 254.646C627.284 257.138 628.773 260.046 629.742 263.369C630.781 266.623 631.3 270.119 631.3 273.858V278.219H595.265V279.569C595.265 283.515 596.373 286.7 598.588 289.123C600.804 291.477 604.092 292.654 608.454 292.654C611.777 292.654 614.477 291.962 616.554 290.577C618.7 289.192 620.604 287.427 622.265 285.281L629.431 293.277C627.215 296.392 624.169 298.85 620.292 300.65C616.484 302.381 612.054 303.246 607 303.246ZM606.792 256.515C603.261 256.515 600.458 257.692 598.381 260.046C596.304 262.4 595.265 265.446 595.265 269.185V270.015H617.488V269.081C617.488 265.342 616.554 262.331 614.684 260.046C612.884 257.692 610.254 256.515 606.792 256.515ZM656.287 302C651.718 302 648.36 300.858 646.214 298.573C644.068 296.288 642.995 293.069 642.995 288.915V225.154H656.287V291.408H663.452V302H656.287ZM680.166 239.9C677.397 239.9 675.389 239.277 674.143 238.031C672.966 236.785 672.377 235.192 672.377 233.254V231.177C672.377 229.238 672.966 227.646 674.143 226.4C675.389 225.154 677.397 224.531 680.166 224.531C682.866 224.531 684.839 225.154 686.085 226.4C687.331 227.646 687.954 229.238 687.954 231.177V233.254C687.954 235.192 687.331 236.785 686.085 238.031C684.839 239.277 682.866 239.9 680.166 239.9ZM673.52 247.792H686.812V302H673.52V247.792ZM696.508 302L714.993 274.481L696.923 247.792H712.085L723.3 265.758H723.716L734.827 247.792H748.95L730.569 274.688L749.054 302H733.893L722.469 283.308H722.054L710.631 302H696.508ZM766.495 303.142C763.656 303.142 761.545 302.45 760.16 301.065C758.845 299.612 758.187 297.777 758.187 295.562V293.692C758.187 291.477 758.845 289.642 760.16 288.188C761.545 286.735 763.656 286.008 766.495 286.008C769.402 286.008 771.514 286.735 772.829 288.188C774.145 289.642 774.802 291.477 774.802 293.692V295.562C774.802 297.777 774.145 299.612 772.829 301.065C771.514 302.45 769.402 303.142 766.495 303.142ZM789.637 225.154H802.929V256.723H803.345C804.314 253.608 806.148 251.15 808.848 249.35C811.548 247.481 814.698 246.546 818.298 246.546C825.221 246.546 830.483 249.004 834.083 253.919C837.752 258.765 839.587 265.723 839.587 274.792C839.587 283.931 837.752 290.958 834.083 295.873C830.483 300.788 825.221 303.246 818.298 303.246C814.698 303.246 811.548 302.312 808.848 300.442C806.218 298.573 804.383 296.081 803.345 292.965H802.929V302H789.637V225.154ZM814.041 292.238C817.502 292.238 820.306 291.096 822.452 288.812C824.598 286.527 825.671 283.446 825.671 279.569V270.223C825.671 266.346 824.598 263.265 822.452 260.981C820.306 258.627 817.502 257.45 814.041 257.45C810.856 257.45 808.191 258.246 806.045 259.838C803.968 261.431 802.929 263.542 802.929 266.173V283.412C802.929 286.25 803.968 288.431 806.045 289.954C808.191 291.477 810.856 292.238 814.041 292.238ZM873.4 303.246C869.523 303.246 866.027 302.588 862.912 301.273C859.866 299.958 857.235 298.054 855.019 295.562C852.873 293.069 851.212 290.092 850.035 286.631C848.858 283.1 848.269 279.154 848.269 274.792C848.269 270.431 848.858 266.519 850.035 263.058C851.212 259.596 852.873 256.654 855.019 254.231C857.235 251.738 859.866 249.835 862.912 248.519C866.027 247.204 869.523 246.546 873.4 246.546C877.277 246.546 880.773 247.204 883.889 248.519C887.004 249.835 889.635 251.738 891.781 254.231C893.996 256.654 895.692 259.596 896.869 263.058C898.046 266.519 898.635 270.431 898.635 274.792C898.635 279.154 898.046 283.1 896.869 286.631C895.692 290.092 893.996 293.069 891.781 295.562C889.635 298.054 887.004 299.958 883.889 301.273C880.773 302.588 877.277 303.246 873.4 303.246ZM873.4 292.55C876.931 292.55 879.7 291.477 881.708 289.331C883.716 287.185 884.719 284.035 884.719 279.881V269.808C884.719 265.723 883.716 262.608 881.708 260.462C879.7 258.315 876.931 257.242 873.4 257.242C869.939 257.242 867.204 258.315 865.196 260.462C863.189 262.608 862.185 265.723 862.185 269.808V279.881C862.185 284.035 863.189 287.185 865.196 289.331C867.204 291.477 869.939 292.55 873.4 292.55ZM903.186 302L921.671 274.481L903.602 247.792H918.763L929.978 265.758H930.394L941.505 247.792H955.628L937.248 274.688L955.732 302H940.571L929.148 283.308H928.732L917.309 302H903.186Z" fill="white"/>
<g filter="url(#filter0_f_80996_20798)">
<ellipse cx="600" cy="794" rx="575" ry="238" fill="url(#paint0_linear_80996_20798)"/>
</g>
<g filter="url(#filter1_f_80996_20798)">
<ellipse cx="600" cy="-210" rx="575" ry="238" fill="url(#paint1_linear_80996_20798)"/>
</g>
<path d="M396.84 376.28V395H394.32V376.28H387.66V374.06H403.5V376.28H396.84ZM406.718 372.8H409.118V382.04H409.238C409.618 381.16 410.148 380.46 410.828 379.94C411.528 379.42 412.458 379.16 413.618 379.16C415.218 379.16 416.478 379.68 417.398 380.72C418.338 381.74 418.808 383.19 418.808 385.07V395H416.408V385.49C416.408 382.71 415.238 381.32 412.898 381.32C412.418 381.32 411.948 381.38 411.488 381.5C411.048 381.62 410.648 381.8 410.288 382.04C409.928 382.28 409.638 382.59 409.418 382.97C409.218 383.33 409.118 383.76 409.118 384.26V395H406.718V372.8ZM429.589 395.36C428.529 395.36 427.569 395.17 426.709 394.79C425.869 394.41 425.139 393.87 424.519 393.17C423.919 392.45 423.449 391.6 423.109 390.62C422.789 389.62 422.629 388.5 422.629 387.26C422.629 386.04 422.789 384.93 423.109 383.93C423.449 382.93 423.919 382.08 424.519 381.38C425.139 380.66 425.869 380.11 426.709 379.73C427.569 379.35 428.529 379.16 429.589 379.16C430.629 379.16 431.559 379.35 432.379 379.73C433.199 380.11 433.899 380.64 434.479 381.32C435.059 381.98 435.499 382.77 435.799 383.69C436.119 384.61 436.279 385.62 436.279 386.72V387.86H425.149V388.58C425.149 389.24 425.249 389.86 425.449 390.44C425.669 391 425.969 391.49 426.349 391.91C426.749 392.33 427.229 392.66 427.789 392.9C428.369 393.14 429.019 393.26 429.739 393.26C430.719 393.26 431.569 393.03 432.289 392.57C433.029 392.11 433.599 391.45 433.999 390.59L435.709 391.82C435.209 392.88 434.429 393.74 433.369 394.4C432.309 395.04 431.049 395.36 429.589 395.36ZM429.589 381.17C428.929 381.17 428.329 381.29 427.789 381.53C427.249 381.75 426.779 382.07 426.379 382.49C425.999 382.91 425.699 383.41 425.479 383.99C425.259 384.55 425.149 385.17 425.149 385.85V386.06H433.699V385.73C433.699 384.35 433.319 383.25 432.559 382.43C431.819 381.59 430.829 381.17 429.589 381.17ZM451.973 395.36C450.533 395.36 449.323 395.09 448.343 394.55C447.383 393.99 446.553 393.25 445.853 392.33L447.563 390.95C448.163 391.71 448.833 392.3 449.573 392.72C450.313 393.12 451.173 393.32 452.153 393.32C453.173 393.32 453.963 393.1 454.523 392.66C455.103 392.22 455.393 391.6 455.393 390.8C455.393 390.2 455.193 389.69 454.793 389.27C454.413 388.83 453.713 388.53 452.693 388.37L451.463 388.19C450.743 388.09 450.083 387.94 449.483 387.74C448.883 387.52 448.353 387.24 447.893 386.9C447.453 386.54 447.103 386.1 446.843 385.58C446.603 385.06 446.483 384.44 446.483 383.72C446.483 382.96 446.623 382.3 446.903 381.74C447.183 381.16 447.563 380.68 448.043 380.3C448.543 379.92 449.133 379.64 449.813 379.46C450.493 379.26 451.223 379.16 452.003 379.16C453.263 379.16 454.313 379.38 455.153 379.82C456.013 380.26 456.763 380.87 457.403 381.65L455.813 383.09C455.473 382.61 454.973 382.18 454.313 381.8C453.653 381.4 452.823 381.2 451.823 381.2C450.823 381.2 450.063 381.42 449.543 381.86C449.043 382.28 448.793 382.86 448.793 383.6C448.793 384.36 449.043 384.91 449.543 385.25C450.063 385.59 450.803 385.84 451.763 386L452.963 386.18C454.683 386.44 455.903 386.94 456.623 387.68C457.343 388.4 457.703 389.35 457.703 390.53C457.703 392.03 457.193 393.21 456.173 394.07C455.153 394.93 453.753 395.36 451.973 395.36ZM461.943 395V379.52H464.343V382.04H464.463C464.643 381.64 464.843 381.27 465.063 380.93C465.303 380.57 465.583 380.26 465.903 380C466.243 379.74 466.633 379.54 467.073 379.4C467.513 379.24 468.033 379.16 468.633 379.16C469.653 379.16 470.593 379.41 471.453 379.91C472.313 380.39 472.953 381.19 473.373 382.31H473.433C473.713 381.47 474.233 380.74 474.993 380.12C475.773 379.48 476.823 379.16 478.143 379.16C479.723 379.16 480.953 379.68 481.833 380.72C482.733 381.74 483.183 383.19 483.183 385.07V395H480.783V385.49C480.783 384.11 480.513 383.07 479.973 382.37C479.433 381.67 478.573 381.32 477.393 381.32C476.913 381.32 476.453 381.38 476.013 381.5C475.593 381.62 475.213 381.8 474.873 382.04C474.533 382.28 474.263 382.59 474.063 382.97C473.863 383.33 473.763 383.76 473.763 384.26V395H471.363V385.49C471.363 384.11 471.093 383.07 470.553 382.37C470.013 381.67 469.173 381.32 468.033 381.32C467.553 381.32 467.093 381.38 466.653 381.5C466.213 381.62 465.823 381.8 465.483 382.04C465.143 382.28 464.863 382.59 464.643 382.97C464.443 383.33 464.343 383.76 464.343 384.26V395H461.943ZM499.384 395C498.484 395 497.834 394.76 497.434 394.28C497.054 393.8 496.814 393.2 496.714 392.48H496.564C496.224 393.44 495.664 394.16 494.884 394.64C494.104 395.12 493.174 395.36 492.094 395.36C490.454 395.36 489.174 394.94 488.254 394.1C487.354 393.26 486.904 392.12 486.904 390.68C486.904 389.22 487.434 388.1 488.494 387.32C489.574 386.54 491.244 386.15 493.504 386.15H496.564V384.62C496.564 383.52 496.264 382.68 495.664 382.1C495.064 381.52 494.144 381.23 492.904 381.23C491.964 381.23 491.174 381.44 490.534 381.86C489.914 382.28 489.394 382.84 488.974 383.54L487.534 382.19C487.954 381.35 488.624 380.64 489.544 380.06C490.464 379.46 491.624 379.16 493.024 379.16C494.904 379.16 496.364 379.62 497.404 380.54C498.444 381.46 498.964 382.74 498.964 384.38V392.9H500.734V395H499.384ZM492.484 393.32C493.084 393.32 493.634 393.25 494.134 393.11C494.634 392.97 495.064 392.77 495.424 392.51C495.784 392.25 496.064 391.95 496.264 391.61C496.464 391.27 496.564 390.9 496.564 390.5V387.95H493.384C492.004 387.95 490.994 388.15 490.354 388.55C489.734 388.95 489.424 389.53 489.424 390.29V390.92C489.424 391.68 489.694 392.27 490.234 392.69C490.794 393.11 491.544 393.32 492.484 393.32ZM504.159 395V379.52H506.559V382.37H506.709C506.989 381.63 507.489 380.97 508.209 380.39C508.929 379.81 509.919 379.52 511.179 379.52H512.109V381.92H510.699C509.399 381.92 508.379 382.17 507.639 382.67C506.919 383.15 506.559 383.76 506.559 384.5V395H504.159ZM518.712 395C517.872 395 517.232 394.77 516.792 394.31C516.372 393.83 516.162 393.21 516.162 392.45V381.62H513.612V379.52H515.052C515.572 379.52 515.922 379.42 516.102 379.22C516.302 379 516.402 378.63 516.402 378.11V375.23H518.562V379.52H521.952V381.62H518.562V392.9H521.712V395H518.712ZM544.15 395C543.25 395 542.6 394.76 542.2 394.28C541.82 393.8 541.58 393.2 541.48 392.48H541.33C540.99 393.44 540.43 394.16 539.65 394.64C538.87 395.12 537.94 395.36 536.86 395.36C535.22 395.36 533.94 394.94 533.02 394.1C532.12 393.26 531.67 392.12 531.67 390.68C531.67 389.22 532.2 388.1 533.26 387.32C534.34 386.54 536.01 386.15 538.27 386.15H541.33V384.62C541.33 383.52 541.03 382.68 540.43 382.1C539.83 381.52 538.91 381.23 537.67 381.23C536.73 381.23 535.94 381.44 535.3 381.86C534.68 382.28 534.16 382.84 533.74 383.54L532.3 382.19C532.72 381.35 533.39 380.64 534.31 380.06C535.23 379.46 536.39 379.16 537.79 379.16C539.67 379.16 541.13 379.62 542.17 380.54C543.21 381.46 543.73 382.74 543.73 384.38V392.9H545.5V395H544.15ZM537.25 393.32C537.85 393.32 538.4 393.25 538.9 393.11C539.4 392.97 539.83 392.77 540.19 392.51C540.55 392.25 540.83 391.95 541.03 391.61C541.23 391.27 541.33 390.9 541.33 390.5V387.95H538.15C536.77 387.95 535.76 388.15 535.12 388.55C534.5 388.95 534.19 389.53 534.19 390.29V390.92C534.19 391.68 534.46 392.27 535 392.69C535.56 393.11 536.31 393.32 537.25 393.32ZM548.925 395V379.52H551.325V382.04H551.445C551.825 381.16 552.355 380.46 553.035 379.94C553.735 379.42 554.665 379.16 555.825 379.16C557.425 379.16 558.685 379.68 559.605 380.72C560.545 381.74 561.015 383.19 561.015 385.07V395H558.615V385.49C558.615 382.71 557.445 381.32 555.105 381.32C554.625 381.32 554.155 381.38 553.695 381.5C553.255 381.62 552.855 381.8 552.495 382.04C552.135 382.28 551.845 382.59 551.625 382.97C551.425 383.33 551.325 383.76 551.325 384.26V395H548.925ZM575.876 392.48H575.756C574.816 394.4 573.306 395.36 571.226 395.36C570.266 395.36 569.396 395.17 568.616 394.79C567.836 394.41 567.166 393.87 566.606 393.17C566.066 392.47 565.646 391.62 565.346 390.62C565.066 389.62 564.926 388.5 564.926 387.26C564.926 386.02 565.066 384.9 565.346 383.9C565.646 382.9 566.066 382.05 566.606 381.35C567.166 380.65 567.836 380.11 568.616 379.73C569.396 379.35 570.266 379.16 571.226 379.16C572.306 379.16 573.226 379.4 573.986 379.88C574.766 380.34 575.356 381.06 575.756 382.04H575.876V372.8H578.276V395H575.876V392.48ZM571.886 393.2C572.426 393.2 572.936 393.13 573.416 392.99C573.916 392.85 574.346 392.65 574.706 392.39C575.066 392.11 575.346 391.78 575.546 391.4C575.766 391 575.876 390.55 575.876 390.05V384.29C575.876 383.87 575.766 383.48 575.546 383.12C575.346 382.74 575.066 382.42 574.706 382.16C574.346 381.9 573.916 381.7 573.416 381.56C572.936 381.4 572.426 381.32 571.886 381.32C570.526 381.32 569.456 381.75 568.676 382.61C567.896 383.45 567.506 384.56 567.506 385.94V388.58C567.506 389.96 567.896 391.08 568.676 391.94C569.456 392.78 570.526 393.2 571.886 393.2ZM596.288 395.36C595.228 395.36 594.268 395.17 593.408 394.79C592.568 394.41 591.838 393.87 591.218 393.17C590.618 392.45 590.148 391.6 589.808 390.62C589.488 389.62 589.328 388.5 589.328 387.26C589.328 386.04 589.488 384.93 589.808 383.93C590.148 382.93 590.618 382.08 591.218 381.38C591.838 380.66 592.568 380.11 593.408 379.73C594.268 379.35 595.228 379.16 596.288 379.16C597.328 379.16 598.258 379.35 599.078 379.73C599.898 380.11 600.598 380.64 601.178 381.32C601.758 381.98 602.198 382.77 602.498 383.69C602.818 384.61 602.978 385.62 602.978 386.72V387.86H591.848V388.58C591.848 389.24 591.948 389.86 592.148 390.44C592.368 391 592.668 391.49 593.048 391.91C593.448 392.33 593.928 392.66 594.488 392.9C595.068 393.14 595.718 393.26 596.438 393.26C597.418 393.26 598.268 393.03 598.988 392.57C599.728 392.11 600.298 391.45 600.698 390.59L602.408 391.82C601.908 392.88 601.128 393.74 600.068 394.4C599.008 395.04 597.748 395.36 596.288 395.36ZM596.288 381.17C595.628 381.17 595.028 381.29 594.488 381.53C593.948 381.75 593.478 382.07 593.078 382.49C592.698 382.91 592.398 383.41 592.178 383.99C591.958 384.55 591.848 385.17 591.848 385.85V386.06H600.398V385.73C600.398 384.35 600.018 383.25 599.258 382.43C598.518 381.59 597.528 381.17 596.288 381.17ZM618.183 395C617.283 395 616.633 394.76 616.233 394.28C615.853 393.8 615.613 393.2 615.513 392.48H615.363C615.023 393.44 614.463 394.16 613.683 394.64C612.903 395.12 611.973 395.36 610.893 395.36C609.253 395.36 607.973 394.94 607.053 394.1C606.153 393.26 605.703 392.12 605.703 390.68C605.703 389.22 606.233 388.1 607.293 387.32C608.373 386.54 610.043 386.15 612.303 386.15H615.363V384.62C615.363 383.52 615.063 382.68 614.463 382.1C613.863 381.52 612.943 381.23 611.703 381.23C610.763 381.23 609.973 381.44 609.333 381.86C608.713 382.28 608.193 382.84 607.773 383.54L606.333 382.19C606.753 381.35 607.423 380.64 608.343 380.06C609.263 379.46 610.423 379.16 611.823 379.16C613.703 379.16 615.163 379.62 616.203 380.54C617.243 381.46 617.763 382.74 617.763 384.38V392.9H619.533V395H618.183ZM611.283 393.32C611.883 393.32 612.433 393.25 612.933 393.11C613.433 392.97 613.863 392.77 614.223 392.51C614.583 392.25 614.863 391.95 615.063 391.61C615.263 391.27 615.363 390.9 615.363 390.5V387.95H612.183C610.803 387.95 609.793 388.15 609.153 388.55C608.533 388.95 608.223 389.53 608.223 390.29V390.92C608.223 391.68 608.493 392.27 609.033 392.69C609.593 393.11 610.343 393.32 611.283 393.32ZM627.608 395.36C626.168 395.36 624.958 395.09 623.978 394.55C623.018 393.99 622.188 393.25 621.488 392.33L623.198 390.95C623.798 391.71 624.468 392.3 625.208 392.72C625.948 393.12 626.808 393.32 627.788 393.32C628.808 393.32 629.598 393.1 630.158 392.66C630.738 392.22 631.028 391.6 631.028 390.8C631.028 390.2 630.828 389.69 630.428 389.27C630.048 388.83 629.348 388.53 628.328 388.37L627.098 388.19C626.378 388.09 625.718 387.94 625.118 387.74C624.518 387.52 623.988 387.24 623.528 386.9C623.088 386.54 622.738 386.1 622.478 385.58C622.238 385.06 622.118 384.44 622.118 383.72C622.118 382.96 622.258 382.3 622.538 381.74C622.818 381.16 623.198 380.68 623.678 380.3C624.178 379.92 624.768 379.64 625.448 379.46C626.128 379.26 626.858 379.16 627.638 379.16C628.898 379.16 629.948 379.38 630.788 379.82C631.648 380.26 632.398 380.87 633.038 381.65L631.448 383.09C631.108 382.61 630.608 382.18 629.948 381.8C629.288 381.4 628.458 381.2 627.458 381.2C626.458 381.2 625.698 381.42 625.178 381.86C624.678 382.28 624.428 382.86 624.428 383.6C624.428 384.36 624.678 384.91 625.178 385.25C625.698 385.59 626.438 385.84 627.398 386L628.598 386.18C630.318 386.44 631.538 386.94 632.258 387.68C632.978 388.4 633.338 389.35 633.338 390.53C633.338 392.03 632.828 393.21 631.808 394.07C630.788 394.93 629.388 395.36 627.608 395.36ZM646.59 379.52H648.96L642.03 398.6C641.85 399.06 641.67 399.44 641.49 399.74C641.31 400.06 641.09 400.31 640.83 400.49C640.57 400.67 640.24 400.8 639.84 400.88C639.46 400.96 638.99 401 638.43 401H637.2V398.9H639.63L640.8 395.6L635.01 379.52H637.41L641.13 390.05L641.85 392.57H642L642.84 390.05L646.59 379.52ZM657.491 379.52H659.831L661.481 386.21L663.131 392.99H663.191L665.081 386.21L667.031 379.52H669.161L671.171 386.21L673.091 392.99H673.151L674.741 386.21L676.421 379.52H678.671L674.561 395H671.591L669.431 387.56L668.081 382.85H668.021L666.701 387.56L664.541 395H661.631L657.491 379.52ZM693.124 395C692.224 395 691.574 394.76 691.174 394.28C690.794 393.8 690.554 393.2 690.454 392.48H690.304C689.964 393.44 689.404 394.16 688.624 394.64C687.844 395.12 686.914 395.36 685.834 395.36C684.194 395.36 682.914 394.94 681.994 394.1C681.094 393.26 680.644 392.12 680.644 390.68C680.644 389.22 681.174 388.1 682.234 387.32C683.314 386.54 684.984 386.15 687.244 386.15H690.304V384.62C690.304 383.52 690.004 382.68 689.404 382.1C688.804 381.52 687.884 381.23 686.644 381.23C685.704 381.23 684.914 381.44 684.274 381.86C683.654 382.28 683.134 382.84 682.714 383.54L681.274 382.19C681.694 381.35 682.364 380.64 683.284 380.06C684.204 379.46 685.364 379.16 686.764 379.16C688.644 379.16 690.104 379.62 691.144 380.54C692.184 381.46 692.704 382.74 692.704 384.38V392.9H694.474V395H693.124ZM686.224 393.32C686.824 393.32 687.374 393.25 687.874 393.11C688.374 392.97 688.804 392.77 689.164 392.51C689.524 392.25 689.804 391.95 690.004 391.61C690.204 391.27 690.304 390.9 690.304 390.5V387.95H687.124C685.744 387.95 684.734 388.15 684.094 388.55C683.474 388.95 683.164 389.53 683.164 390.29V390.92C683.164 391.68 683.434 392.27 683.974 392.69C684.534 393.11 685.284 393.32 686.224 393.32ZM707.293 379.52H709.663L702.733 398.6C702.553 399.06 702.373 399.44 702.193 399.74C702.013 400.06 701.793 400.31 701.533 400.49C701.273 400.67 700.943 400.8 700.543 400.88C700.163 400.96 699.693 401 699.133 401H697.903V398.9H700.333L701.503 395.6L695.713 379.52H698.113L701.833 390.05L702.553 392.57H702.703L703.543 390.05L707.293 379.52ZM723.234 395C722.394 395 721.754 394.77 721.314 394.31C720.894 393.83 720.684 393.21 720.684 392.45V381.62H718.134V379.52H719.574C720.094 379.52 720.444 379.42 720.624 379.22C720.824 379 720.924 378.63 720.924 378.11V375.23H723.084V379.52H726.474V381.62H723.084V392.9H726.234V395H723.234ZM736.064 395.36C735.024 395.36 734.074 395.17 733.214 394.79C732.354 394.41 731.614 393.87 730.994 393.17C730.394 392.45 729.924 391.6 729.584 390.62C729.244 389.62 729.074 388.5 729.074 387.26C729.074 386.04 729.244 384.93 729.584 383.93C729.924 382.93 730.394 382.08 730.994 381.38C731.614 380.66 732.354 380.11 733.214 379.73C734.074 379.35 735.024 379.16 736.064 379.16C737.104 379.16 738.044 379.35 738.884 379.73C739.744 380.11 740.484 380.66 741.104 381.38C741.724 382.08 742.204 382.93 742.544 383.93C742.884 384.93 743.054 386.04 743.054 387.26C743.054 388.5 742.884 389.62 742.544 390.62C742.204 391.6 741.724 392.45 741.104 393.17C740.484 393.87 739.744 394.41 738.884 394.79C738.044 395.17 737.104 395.36 736.064 395.36ZM736.064 393.23C737.364 393.23 738.424 392.83 739.244 392.03C740.064 391.23 740.474 390.01 740.474 388.37V386.15C740.474 384.51 740.064 383.29 739.244 382.49C738.424 381.69 737.364 381.29 736.064 381.29C734.764 381.29 733.704 381.69 732.884 382.49C732.064 383.29 731.654 384.51 731.654 386.15V388.37C731.654 390.01 732.064 391.23 732.884 392.03C733.704 392.83 734.764 393.23 736.064 393.23ZM754.331 374.06H761.351C762.651 374.06 763.831 374.28 764.891 374.72C765.951 375.16 766.851 375.82 767.591 376.7C768.351 377.56 768.931 378.65 769.331 379.97C769.731 381.27 769.931 382.79 769.931 384.53C769.931 386.27 769.731 387.8 769.331 389.12C768.931 390.42 768.351 391.51 767.591 392.39C766.851 393.25 765.951 393.9 764.891 394.34C763.831 394.78 762.651 395 761.351 395H754.331V374.06ZM761.351 392.78C762.211 392.78 763.001 392.64 763.721 392.36C764.441 392.06 765.061 391.63 765.581 391.07C766.101 390.51 766.501 389.83 766.781 389.03C767.081 388.21 767.231 387.28 767.231 386.24V382.82C767.231 381.78 767.081 380.86 766.781 380.06C766.501 379.24 766.101 378.55 765.581 377.99C765.061 377.43 764.441 377.01 763.721 376.73C763.001 376.43 762.211 376.28 761.351 376.28H756.851V392.78H761.351ZM780.038 395.36C778.978 395.36 778.018 395.17 777.158 394.79C776.318 394.41 775.588 393.87 774.968 393.17C774.368 392.45 773.898 391.6 773.558 390.62C773.238 389.62 773.078 388.5 773.078 387.26C773.078 386.04 773.238 384.93 773.558 383.93C773.898 382.93 774.368 382.08 774.968 381.38C775.588 380.66 776.318 380.11 777.158 379.73C778.018 379.35 778.978 379.16 780.038 379.16C781.078 379.16 782.008 379.35 782.828 379.73C783.648 380.11 784.348 380.64 784.928 381.32C785.508 381.98 785.948 382.77 786.248 383.69C786.568 384.61 786.728 385.62 786.728 386.72V387.86H775.598V388.58C775.598 389.24 775.698 389.86 775.898 390.44C776.118 391 776.418 391.49 776.798 391.91C777.198 392.33 777.678 392.66 778.238 392.9C778.818 393.14 779.468 393.26 780.188 393.26C781.168 393.26 782.018 393.03 782.738 392.57C783.478 392.11 784.048 391.45 784.448 390.59L786.158 391.82C785.658 392.88 784.878 393.74 783.818 394.4C782.758 395.04 781.498 395.36 780.038 395.36ZM780.038 381.17C779.378 381.17 778.778 381.29 778.238 381.53C777.698 381.75 777.228 382.07 776.828 382.49C776.448 382.91 776.148 383.41 775.928 383.99C775.708 384.55 775.598 385.17 775.598 385.85V386.06H784.148V385.73C784.148 384.35 783.768 383.25 783.008 382.43C782.268 381.59 781.278 381.17 780.038 381.17ZM790.923 395V374.06H803.403V376.28H793.443V383.3H802.533V385.52H793.443V395H790.923ZM808.641 375.89C808.121 375.89 807.741 375.77 807.501 375.53C807.281 375.27 807.171 374.94 807.171 374.54V374.15C807.171 373.75 807.281 373.43 807.501 373.19C807.741 372.93 808.121 372.8 808.641 372.8C809.161 372.8 809.531 372.93 809.751 373.19C809.991 373.43 810.111 373.75 810.111 374.15V374.54C810.111 374.94 809.991 375.27 809.751 375.53C809.531 375.77 809.161 375.89 808.641 375.89ZM807.441 379.52H809.841V395H807.441V379.52Z" fill="white"/>
</g>
<defs>
<filter id="filter0_f_80996_20798" x="-169" y="362" width="1538" height="864" filterUnits="userSpaceOnUse" color-interpolation-filters="sRGB">
<feFlood flood-opacity="0" result="BackgroundImageFix"/>
<feBlend mode="normal" in="SourceGraphic" in2="BackgroundImageFix" result="shape"/>
<feGaussianBlur stdDeviation="97" result="effect1_foregroundBlur_80996_20798"/>
</filter>
<filter id="filter1_f_80996_20798" x="-169" y="-642" width="1538" height="864" filterUnits="userSpaceOnUse" color-interpolation-filters="sRGB">
<feFlood flood-opacity="0" result="BackgroundImageFix"/>
<feBlend mode="normal" in="SourceGraphic" in2="BackgroundImageFix" result="shape"/>
<feGaussianBlur stdDeviation="97" result="effect1_foregroundBlur_80996_20798"/>
</filter>
<linearGradient id="paint0_linear_80996_20798" x1="1175" y1="1032" x2="15.1727" y2="1006.71" gradientUnits="userSpaceOnUse">
<stop stop-color="#1859FF"/>
<stop offset="1" stop-color="#0286FF"/>
</linearGradient>
<linearGradient id="paint1_linear_80996_20798" x1="1175" y1="28" x2="15.1727" y2="2.71101" gradientUnits="userSpaceOnUse">
<stop stop-color="#1859FF"/>
<stop offset="1" stop-color="#0286FF"/>
</linearGradient>
<clipPath id="clip0_80996_20798">
<rect width="1200" height="600" fill="white"/>
</clipPath>
</defs>
</svg>
