<svg width="688" height="135" viewBox="0 0 688 135" fill="none" xmlns="http://www.w3.org/2000/svg">
<path opacity="0.6" fill-rule="evenodd" clip-rule="evenodd" d="M111.215 3.20361V67.5L0 131.796V67.5L111.215 3.20361ZM222.431 3.20361V67.5L111.215 131.796V67.5L222.431 3.20361Z" fill="#0085FF"/>
<path fill-rule="evenodd" clip-rule="evenodd" d="M0 3.20361L111.215 67.5V131.796L0 67.5V3.20361ZM111.215 3.20361L222.431 67.5V131.796L111.215 67.5V3.20361Z" fill="#0085FF"/>
<path d="M635.334 105.612L653.819 78.0928L635.749 51.4043H650.911L662.126 69.3697H662.542L673.653 51.4043H687.776L669.396 78.3005L687.88 105.612H672.719L661.296 86.9197H660.88L649.457 105.612H635.334Z" fill="#0085FF"/>
<path d="M605.541 106.858C601.664 106.858 598.168 106.201 595.052 104.885C592.006 103.57 589.376 101.666 587.16 99.1736C585.014 96.6813 583.352 93.7044 582.176 90.2428C580.999 86.7121 580.41 82.7659 580.41 78.4044C580.41 74.0428 580.999 70.1313 582.176 66.6697C583.352 63.2082 585.014 60.2659 587.16 57.8428C589.376 55.3505 592.006 53.4467 595.052 52.1313C598.168 50.8159 601.664 50.1582 605.541 50.1582C609.418 50.1582 612.914 50.8159 616.029 52.1313C619.145 53.4467 621.776 55.3505 623.922 57.8428C626.137 60.2659 627.833 63.2082 629.01 66.6697C630.187 70.1313 630.776 74.0428 630.776 78.4044C630.776 82.7659 630.187 86.7121 629.01 90.2428C627.833 93.7044 626.137 96.6813 623.922 99.1736C621.776 101.666 619.145 103.57 616.029 104.885C612.914 106.201 609.418 106.858 605.541 106.858ZM605.541 96.1621C609.072 96.1621 611.841 95.089 613.849 92.9428C615.856 90.7967 616.86 87.6467 616.86 83.4928V73.4197C616.86 69.3351 615.856 66.2197 613.849 64.0736C611.841 61.9274 609.072 60.8544 605.541 60.8544C602.079 60.8544 599.345 61.9274 597.337 64.0736C595.329 66.2197 594.326 69.3351 594.326 73.4197V83.4928C594.326 87.6467 595.329 90.7967 597.337 92.9428C599.345 95.089 602.079 96.1621 605.541 96.1621Z" fill="#0085FF"/>
<path d="M521.783 28.7646H535.076V60.3339H535.491C536.46 57.2185 538.295 54.7608 540.995 52.9608C543.695 51.0916 546.845 50.157 550.445 50.157C557.368 50.157 562.629 52.6146 566.229 57.53C569.899 62.3762 571.733 69.3339 571.733 78.4031C571.733 87.5416 569.899 94.5685 566.229 99.4839C562.629 104.399 557.368 106.857 550.445 106.857C546.845 106.857 543.695 105.922 540.995 104.053C538.364 102.184 536.529 99.6916 535.491 96.5762H535.076V105.611H521.783V28.7646ZM546.187 95.8493C549.649 95.8493 552.452 94.707 554.599 92.4223C556.745 90.1377 557.818 87.057 557.818 83.18V73.8339C557.818 69.957 556.745 66.8762 554.599 64.5916C552.452 62.2377 549.649 61.0608 546.187 61.0608C543.002 61.0608 540.337 61.857 538.191 63.4493C536.114 65.0416 535.076 67.1531 535.076 69.7839V87.0223C535.076 89.8608 536.114 92.0416 538.191 93.5647C540.337 95.0877 543.002 95.8493 546.187 95.8493Z" fill="#0085FF"/>
<path d="M459.582 105.612L478.067 78.0928L459.997 51.4043H475.159L486.374 69.3697H486.79L497.901 51.4043H512.024L493.644 78.3005L512.128 105.612H496.967L485.544 86.9197H485.128L473.705 105.612H459.582Z" fill="#0085FF"/>
<path d="M443.245 43.5108C440.476 43.5108 438.469 42.8878 437.222 41.6416C436.045 40.3955 435.457 38.8031 435.457 36.8647V34.7878C435.457 32.8493 436.045 31.257 437.222 30.0108C438.469 28.7647 440.476 28.1416 443.245 28.1416C445.945 28.1416 447.919 28.7647 449.165 30.0108C450.411 31.257 451.034 32.8493 451.034 34.7878V36.8647C451.034 38.8031 450.411 40.3955 449.165 41.6416C447.919 42.8878 445.945 43.5108 443.245 43.5108ZM436.599 51.4031H449.892V105.611H436.599V51.4031Z" fill="#0085FF"/>
<path d="M419.363 105.611C414.793 105.611 411.436 104.469 409.29 102.184C407.143 99.8993 406.07 96.68 406.07 92.5262V28.7646H419.363V95.0185H426.528V105.611H419.363Z" fill="#0085FF"/>
<path d="M370.075 106.858C366.06 106.858 362.46 106.201 359.275 104.885C356.16 103.501 353.495 101.597 351.279 99.1736C349.133 96.6813 347.472 93.7044 346.295 90.2428C345.118 86.7121 344.529 82.7659 344.529 78.4044C344.529 74.1121 345.083 70.2351 346.191 66.7736C347.368 63.3121 349.029 60.3697 351.175 57.9467C353.322 55.4544 355.952 53.5505 359.068 52.2351C362.183 50.8505 365.714 50.1582 369.66 50.1582C373.883 50.1582 377.552 50.8851 380.668 52.339C383.783 53.7928 386.345 55.7659 388.352 58.2582C390.36 60.7505 391.849 63.6582 392.818 66.9813C393.856 70.2351 394.375 73.7313 394.375 77.4697V81.8313H358.341V83.1813C358.341 87.1274 359.449 90.3121 361.664 92.7351C363.879 95.089 367.168 96.2659 371.529 96.2659C374.852 96.2659 377.552 95.5736 379.629 94.189C381.775 92.8044 383.679 91.039 385.341 88.8928L392.506 96.889C390.291 100.004 387.245 102.462 383.368 104.262C379.56 105.993 375.129 106.858 370.075 106.858ZM369.868 60.1274C366.337 60.1274 363.533 61.3044 361.456 63.6582C359.379 66.012 358.341 69.0582 358.341 72.7967V73.6274H380.564V72.6928C380.564 68.9544 379.629 65.9428 377.76 63.6582C375.96 61.3044 373.329 60.1274 369.868 60.1274Z" fill="#0085FF"/>
<path d="M318.28 74.975H288.061V105.61H274.354V33.125H288.061V62.825H318.28V33.125H331.988V105.61H318.28V74.975Z" fill="#0085FF"/>
</svg>
