<svg width="1005" height="189" viewBox="0 0 1005 189" fill="none" xmlns="http://www.w3.org/2000/svg">
<path opacity="0.6" fill-rule="evenodd" clip-rule="evenodd" d="M162.652 0V94.0334L0 188.067V94.0334L162.652 0ZM325.305 0V94.0334L162.652 188.067V94.0334L325.305 0Z" fill="#0085FF"/>
<path fill-rule="evenodd" clip-rule="evenodd" d="M0 0L162.652 94.0334V188.067L0 94.0334V0ZM162.652 0L325.305 94.0334V188.067L162.652 94.0334V0Z" fill="#0085FF"/>
<path d="M928 149.648L954.973 109.49L928.606 70.545H950.73L967.097 96.7612H967.703L983.917 70.545H1004.53L977.704 109.794L1004.68 149.648H982.553L965.884 122.371H965.278L948.609 149.648H928Z" fill="white"/>
<path d="M884.534 151.466C878.876 151.466 873.774 150.507 869.228 148.587C864.783 146.668 860.944 143.889 857.711 140.253C854.58 136.616 852.155 132.272 850.437 127.22C848.72 122.068 847.861 116.309 847.861 109.945C847.861 103.58 848.72 97.8723 850.437 92.821C852.155 87.7697 854.58 83.4761 857.711 79.9402C860.944 76.3033 864.783 73.5251 869.228 71.6056C873.774 69.6861 878.876 68.7264 884.534 68.7264C890.191 68.7264 895.293 69.6861 899.839 71.6056C904.385 73.5251 908.224 76.3033 911.356 79.9402C914.589 83.4761 917.064 87.7697 918.781 92.821C920.499 97.8723 921.357 103.58 921.357 109.945C921.357 116.309 920.499 122.068 918.781 127.22C917.064 132.272 914.589 136.616 911.356 140.253C908.224 143.889 904.385 146.668 899.839 148.587C895.293 150.507 890.191 151.466 884.534 151.466ZM884.534 135.858C889.686 135.858 893.727 134.292 896.657 131.16C899.586 128.028 901.051 123.432 901.051 117.37V102.671C901.051 96.7105 899.586 92.1643 896.657 89.0325C893.727 85.9007 889.686 84.3348 884.534 84.3348C879.482 84.3348 875.492 85.9007 872.562 89.0325C869.632 92.1643 868.167 96.7105 868.167 102.671V117.37C868.167 123.432 869.632 128.028 872.562 131.16C875.492 134.292 879.482 135.858 884.534 135.858Z" fill="white"/>
<path d="M762.302 37.5096H781.698V83.5773H782.305C783.719 79.0311 786.396 75.4447 790.336 72.818C794.276 70.0903 798.873 68.7265 804.126 68.7265C814.229 68.7265 821.907 72.3129 827.16 79.4857C832.514 86.5575 835.192 96.7106 835.192 109.945C835.192 123.28 832.514 133.534 827.16 140.707C821.907 147.88 814.229 151.467 804.126 151.467C798.873 151.467 794.276 150.103 790.336 147.375C786.497 144.647 783.82 141.01 782.305 136.464H781.698V149.648H762.302V37.5096ZM797.913 135.403C802.964 135.403 807.056 133.737 810.188 130.403C813.319 127.069 814.885 122.573 814.885 116.916V103.277C814.885 97.6198 813.319 93.1242 810.188 89.7904C807.056 86.3555 802.964 84.638 797.913 84.638C793.266 84.638 789.376 85.7998 786.245 88.1234C783.214 90.447 781.698 93.5283 781.698 97.3673V122.523C781.698 126.665 783.214 129.847 786.245 132.07C789.376 134.292 793.266 135.403 797.913 135.403Z" fill="white"/>
<path d="M671.539 149.648L698.513 109.49L672.145 70.545H694.27L710.636 96.7612H711.242L727.457 70.545H748.066L721.244 109.794L748.217 149.648H726.093L709.424 122.371H708.817L692.148 149.648H671.539Z" fill="white"/>
<path d="M647.691 59.028C643.65 59.028 640.72 58.1187 638.902 56.3003C637.184 54.4818 636.326 52.1582 636.326 49.3295V46.2987C636.326 43.47 637.184 41.1464 638.902 39.328C640.72 37.5095 643.65 36.6003 647.691 36.6003C651.631 36.6003 654.51 37.5095 656.329 39.328C658.147 41.1464 659.056 43.47 659.056 46.2987V49.3295C659.056 52.1582 658.147 54.4818 656.329 56.3003C654.51 58.1187 651.631 59.028 647.691 59.028ZM637.993 70.5449H657.389V149.648H637.993V70.5449Z" fill="white"/>
<path d="M612.845 149.648C606.178 149.648 601.278 147.981 598.146 144.647C595.014 141.313 593.448 136.616 593.448 130.554V37.5096H612.845V134.191H623.301V149.648H612.845Z" fill="white"/>
<path d="M540.922 151.466C535.063 151.466 529.81 150.507 525.162 148.587C520.616 146.567 516.727 143.788 513.494 140.253C510.362 136.616 507.938 132.272 506.22 127.22C504.503 122.068 503.644 116.309 503.644 109.945C503.644 103.681 504.452 98.0238 506.069 92.9725C507.786 87.9213 510.211 83.6277 513.342 80.0918C516.474 76.4548 520.313 73.6766 524.859 71.7572C529.406 69.7366 534.558 68.7264 540.316 68.7264C546.479 68.7264 551.833 69.7871 556.379 71.9087C560.926 74.0302 564.663 76.9095 567.593 80.5464C570.523 84.1833 572.695 88.4264 574.109 93.2756C575.625 98.0238 576.382 103.126 576.382 108.581V114.946H523.799V116.916C523.799 122.674 525.415 127.321 528.648 130.857C531.881 134.292 536.679 136.009 543.044 136.009C547.893 136.009 551.833 134.999 554.864 132.979C557.996 130.958 560.774 128.382 563.199 125.25L573.655 136.919C570.422 141.465 565.977 145.051 560.319 147.678C554.763 150.204 548.297 151.466 540.922 151.466ZM540.619 83.2741C535.467 83.2741 531.376 84.9915 528.345 88.4264C525.314 91.8613 523.799 96.3064 523.799 101.762V102.974H556.228V101.61C556.228 96.1548 554.864 91.7602 552.136 88.4264C549.51 84.9915 545.671 83.2741 540.619 83.2741Z" fill="white"/>
<path d="M465.343 104.944H421.245V149.648H401.242V43.8741H421.245V87.2141H465.343V43.8741H485.346V149.648H465.343V104.944Z" fill="white"/>
</svg>
