<svg width="683" height="128" viewBox="0 0 683 128" fill="none" xmlns="http://www.w3.org/2000/svg">
<path opacity="0.6" fill-rule="evenodd" clip-rule="evenodd" d="M105.449 3.03711V63.9996L0 124.962V63.9996L105.449 3.03711ZM210.897 3.03711V63.9996L105.449 124.962V63.9996L210.897 3.03711Z" fill="#0085FF"/>
<path fill-rule="evenodd" clip-rule="evenodd" d="M0 3.03711L105.449 63.9996V124.962L0 63.9996V3.03711ZM105.449 3.03711L210.897 63.9996V124.962L105.449 63.9996V3.03711Z" fill="#0085FF"/>
<path fill-rule="evenodd" clip-rule="evenodd" d="M408.16 41.2569C405.534 41.2569 403.63 40.6661 402.449 39.4846C401.333 38.303 400.775 36.7933 400.775 34.9553V32.9861C400.775 31.1482 401.333 29.6384 402.449 28.4569C403.63 27.2753 405.534 26.6846 408.16 26.6846C410.72 26.6846 412.59 27.2753 413.772 28.4569C414.953 29.6384 415.544 31.1482 415.544 32.9861V34.9553C415.544 36.7933 414.953 38.303 413.772 39.4846C412.59 40.6661 410.72 41.2569 408.16 41.2569ZM414.461 48.74V100.137H401.858V48.74H414.461ZM524.559 27.2752H511.956V100.137H524.559V91.5706H524.953C525.938 94.5244 527.677 96.8875 530.172 98.6598C532.732 100.432 535.718 101.318 539.132 101.318C545.696 101.318 550.684 98.988 554.098 94.3275C557.577 89.667 559.316 83.0044 559.316 74.3398C559.316 65.7408 557.577 59.1439 554.098 54.549C550.684 49.8885 545.696 47.5583 539.132 47.5583C535.718 47.5583 532.732 48.4444 530.172 50.2167C527.612 51.9234 525.872 54.2537 524.953 57.2075H524.559V27.2752ZM543.07 87.6321C541.035 89.7983 538.377 90.8813 535.095 90.8813C532.075 90.8813 529.548 90.1593 527.513 88.7152C525.544 87.2711 524.559 85.2034 524.559 82.5121V66.1675C524.559 63.6731 525.544 61.6711 527.513 60.1614C529.548 58.6516 532.075 57.8967 535.095 57.8967C538.377 57.8967 541.035 59.0126 543.07 61.2444C545.105 63.4106 546.122 66.3316 546.122 70.0075V78.869C546.122 82.5449 545.105 85.466 543.07 87.6321ZM591.378 101.316C587.702 101.316 584.387 100.693 581.433 99.4457C578.545 98.1985 576.051 96.3934 573.95 94.0303C571.915 91.6672 570.34 88.8447 569.224 85.5626C568.108 82.2149 567.55 78.4734 567.55 74.338C567.55 70.2026 568.108 66.4939 569.224 63.2118C570.34 59.9298 571.915 57.14 573.95 54.8426C576.051 52.4795 578.545 50.6744 581.433 49.4272C584.387 48.18 587.702 47.5564 591.378 47.5564C595.054 47.5564 598.368 48.18 601.322 49.4272C604.276 50.6744 606.771 52.4795 608.805 54.8426C610.906 57.14 612.514 59.9298 613.63 63.2118C614.746 66.4939 615.304 70.2026 615.304 74.338C615.304 78.4734 614.746 82.2149 613.63 85.5626C612.514 88.8447 610.906 91.6672 608.805 94.0303C606.771 96.3934 604.276 98.1985 601.322 99.4457C598.368 100.693 595.054 101.316 591.378 101.316ZM591.378 91.1749C594.725 91.1749 597.351 90.1575 599.255 88.1226C601.158 86.0877 602.11 83.1011 602.11 79.1626V69.6118C602.11 65.739 601.158 62.7852 599.255 60.7503C597.351 58.7154 594.725 57.698 591.378 57.698C588.096 57.698 585.503 58.7154 583.599 60.7503C581.696 62.7852 580.744 65.739 580.744 69.6118V79.1626C580.744 83.1011 581.696 86.0877 583.599 88.1226C585.503 90.1575 588.096 91.1749 591.378 91.1749ZM619.619 100.135L637.145 74.0423L620.013 48.7377H634.388L645.022 65.7715H645.416L655.951 48.7377H669.342L651.914 74.2392L669.44 100.135H655.065L644.234 82.4115H643.84L633.009 100.135H619.619ZM490.014 101.218C487.323 101.218 485.321 100.562 484.008 99.249C482.761 97.8705 482.137 96.1311 482.137 94.0305V92.2582C482.137 90.1577 482.761 88.4182 484.008 87.0398C485.321 85.6613 487.323 84.9721 490.014 84.9721C492.771 84.9721 494.773 85.6613 496.021 87.0398C497.268 88.4182 497.891 90.1577 497.891 92.2582V94.0305C497.891 96.1311 497.268 97.8705 496.021 99.249C494.773 100.562 492.771 101.218 490.014 101.218ZM441.182 74.0423L423.656 100.135H437.047L447.878 82.4115H448.272L459.102 100.135H473.478L455.952 74.2392L473.379 48.7377H459.989L449.453 65.7715H449.059L438.425 48.7377H424.05L441.182 74.0423ZM375.971 96.8875C378.006 99.0537 381.19 100.137 385.522 100.137H392.316V90.0937H385.522V27.2752H372.919V87.7306C372.919 91.669 373.936 94.7214 375.971 96.8875ZM338.79 101.316C334.983 101.316 331.57 100.693 328.55 99.4457C325.596 98.1329 323.069 96.3277 320.969 94.0303C318.934 91.6672 317.358 88.8447 316.243 85.5626C315.127 82.2149 314.569 78.4734 314.569 74.338C314.569 70.2682 315.094 66.5923 316.144 63.3103C317.26 60.0282 318.835 57.2385 320.87 54.9411C322.905 52.578 325.4 50.7729 328.353 49.5257C331.307 48.2129 334.655 47.5564 338.396 47.5564C342.401 47.5564 345.88 48.2457 348.833 49.6241C351.787 51.0026 354.216 52.8734 356.12 55.2364C358.023 57.5995 359.434 60.3564 360.353 63.5072C361.338 66.5923 361.83 69.9072 361.83 73.4518V77.5872H327.664V78.8672C327.664 82.6088 328.714 85.6283 330.815 87.9257C332.915 90.1575 336.033 91.2734 340.169 91.2734C343.32 91.2734 345.88 90.617 347.849 89.3041C349.884 87.9913 351.689 86.3175 353.264 84.2826L360.058 91.8641C357.957 94.818 355.069 97.1482 351.393 98.8549C347.783 100.496 343.582 101.316 338.79 101.316ZM338.593 57.0088C335.246 57.0088 332.587 58.1247 330.618 60.3564C328.649 62.5882 327.664 65.4764 327.664 69.0211V69.8088H348.735V68.9226C348.735 65.378 347.849 62.5226 346.076 60.3564C344.37 58.1247 341.875 57.0088 338.593 57.0088ZM272.728 27.2752H260.125V100.137H272.728V66.1675C272.728 64.789 273.023 63.6075 273.614 62.6229C274.205 61.5726 274.96 60.7193 275.879 60.0629C276.863 59.3408 277.947 58.8157 279.128 58.4875C280.375 58.0937 281.655 57.8967 282.968 57.8967C285.988 57.8967 288.154 58.8157 289.467 60.6537C290.779 62.4916 291.436 65.2485 291.436 68.9244V100.137H304.039V67.6444C304.039 61.2116 302.628 56.2557 299.805 52.7767C296.982 49.2978 292.913 47.5583 287.596 47.5583C283.592 47.5583 280.441 48.5101 278.143 50.4137C275.912 52.2516 274.271 54.549 273.22 57.306H272.728V27.2752Z" fill="white"/>
</svg>
