<?xml version="1.0" encoding="UTF-8"?>
<svg width="1005px" height="189px" viewBox="0 0 1005 189" version="1.1" xmlns="http://www.w3.org/2000/svg" xmlns:xlink="http://www.w3.org/1999/xlink">
    <title>helixbox black@2x</title>
    <g id="页面-1" stroke="none" stroke-width="1" fill="none" fill-rule="evenodd">
        <g id="helixbox-black" fill="#0085FF">
            <path d="M162.652,0 L162.652,94.0334 L0,188.067 L0,94.0334 L162.652,0 Z M325.305,0 L325.305,94.0334 L162.652,188.067 L162.652,94.0334 L325.305,0 Z" id="形状" opacity="0.6"></path>
            <path d="M0,0 L162.652,94.0334 L162.652,188.067 L0,94.0334 L0,0 Z M162.652,0 L325.305,94.0334 L325.305,188.067 L162.652,94.0334 L162.652,0 Z" id="形状"></path>
            <polygon id="路径" fill-rule="nonzero" points="928 149.648 954.973 109.49 928.606 70.545 950.73 70.545 967.097 96.7612 967.703 96.7612 983.917 70.545 1004.53 70.545 977.704 109.794 1004.68 149.648 982.553 149.648 965.884 122.371 965.278 122.371 948.609 149.648"></polygon>
            <path d="M884.534,151.466 C878.876,151.466 873.774,150.507 869.228,148.587 C864.783,146.668 860.944,143.889 857.711,140.253 C854.58,136.616 852.155,132.272 850.437,127.22 C848.72,122.068 847.861,116.309 847.861,109.945 C847.861,103.58 848.72,97.8723 850.437,92.821 C852.155,87.7697 854.58,83.4761 857.711,79.9402 C860.944,76.3033 864.783,73.5251 869.228,71.6056 C873.774,69.6861 878.876,68.7264 884.534,68.7264 C890.191,68.7264 895.293,69.6861 899.839,71.6056 C904.385,73.5251 908.224,76.3033 911.356,79.9402 C914.589,83.4761 917.064,87.7697 918.781,92.821 C920.499,97.8723 921.357,103.58 921.357,109.945 C921.357,116.309 920.499,122.068 918.781,127.22 C917.064,132.272 914.589,136.616 911.356,140.253 C908.224,143.889 904.385,146.668 899.839,148.587 C895.293,150.507 890.191,151.466 884.534,151.466 Z M884.534,135.858 C889.686,135.858 893.727,134.292 896.657,131.16 C899.586,128.028 901.051,123.432 901.051,117.37 L901.051,102.671 C901.051,96.7105 899.586,92.1643 896.657,89.0325 C893.727,85.9007 889.686,84.3348 884.534,84.3348 C879.482,84.3348 875.492,85.9007 872.562,89.0325 C869.632,92.1643 868.167,96.7105 868.167,102.671 L868.167,117.37 C868.167,123.432 869.632,128.028 872.562,131.16 C875.492,134.292 879.482,135.858 884.534,135.858 Z" id="形状" fill-rule="nonzero"></path>
            <path d="M762.302,37.5096 L781.698,37.5096 L781.698,83.5773 L782.305,83.5773 C783.719,79.0311 786.396,75.4447 790.336,72.818 C794.276,70.0903 798.873,68.7265 804.126,68.7265 C814.229,68.7265 821.907,72.3129 827.16,79.4857 C832.514,86.5575 835.192,96.7106 835.192,109.945 C835.192,123.28 832.514,133.534 827.16,140.707 C821.907,147.88 814.229,151.467 804.126,151.467 C798.873,151.467 794.276,150.103 790.336,147.375 C786.497,144.647 783.82,141.01 782.305,136.464 L781.698,136.464 L781.698,149.648 L762.302,149.648 L762.302,37.5096 Z M797.913,135.403 C802.964,135.403 807.056,133.737 810.188,130.403 C813.319,127.069 814.885,122.573 814.885,116.916 L814.885,103.277 C814.885,97.6198 813.319,93.1242 810.188,89.7904 C807.056,86.3555 802.964,84.638 797.913,84.638 C793.266,84.638 789.376,85.7998 786.245,88.1234 C783.214,90.447 781.698,93.5283 781.698,97.3673 L781.698,122.523 C781.698,126.665 783.214,129.847 786.245,132.07 C789.376,134.292 793.266,135.403 797.913,135.403 Z" id="形状" fill-rule="nonzero"></path>
            <polygon id="路径" fill-rule="nonzero" points="671.539 149.648 698.513 109.49 672.145 70.545 694.27 70.545 710.636 96.7612 711.242 96.7612 727.457 70.545 748.066 70.545 721.244 109.794 748.217 149.648 726.093 149.648 709.424 122.371 708.817 122.371 692.148 149.648"></polygon>
            <path d="M647.691,59.028 C643.65,59.028 640.72,58.1187 638.902,56.3003 C637.184,54.4818 636.326,52.1582 636.326,49.3295 L636.326,46.2987 C636.326,43.47 637.184,41.1464 638.902,39.328 C640.72,37.5095 643.65,36.6003 647.691,36.6003 C651.631,36.6003 654.51,37.5095 656.329,39.328 C658.147,41.1464 659.056,43.47 659.056,46.2987 L659.056,49.3295 C659.056,52.1582 658.147,54.4818 656.329,56.3003 C654.51,58.1187 651.631,59.028 647.691,59.028 Z M637.993,70.5449 L657.389,70.5449 L657.389,149.648 L637.993,149.648 L637.993,70.5449 Z" id="形状" fill-rule="nonzero"></path>
            <path d="M612.845,149.648 C606.178,149.648 601.278,147.981 598.146,144.647 C595.014,141.313 593.448,136.616 593.448,130.554 L593.448,37.5096 L612.845,37.5096 L612.845,134.191 L623.301,134.191 L623.301,149.648 L612.845,149.648 Z" id="路径" fill-rule="nonzero"></path>
            <path d="M540.922,151.466 C535.063,151.466 529.81,150.507 525.162,148.587 C520.616,146.567 516.727,143.788 513.494,140.253 C510.362,136.616 507.938,132.272 506.22,127.22 C504.503,122.068 503.644,116.309 503.644,109.945 C503.644,103.681 504.452,98.0238 506.069,92.9725 C507.786,87.9213 510.211,83.6277 513.342,80.0918 C516.474,76.4548 520.313,73.6766 524.859,71.7572 C529.406,69.7366 534.558,68.7264 540.316,68.7264 C546.479,68.7264 551.833,69.7871 556.379,71.9087 C560.926,74.0302 564.663,76.9095 567.593,80.5464 C570.523,84.1833 572.695,88.4264 574.109,93.2756 C575.625,98.0238 576.382,103.126 576.382,108.581 L576.382,114.946 L523.799,114.946 L523.799,116.916 C523.799,122.674 525.415,127.321 528.648,130.857 C531.881,134.292 536.679,136.009 543.044,136.009 C547.893,136.009 551.833,134.999 554.864,132.979 C557.996,130.958 560.774,128.382 563.199,125.25 L573.655,136.919 C570.422,141.465 565.977,145.051 560.319,147.678 C554.763,150.204 548.297,151.466 540.922,151.466 Z M540.619,83.2741 C535.467,83.2741 531.376,84.9915 528.345,88.4264 C525.314,91.8613 523.799,96.3064 523.799,101.762 L523.799,102.974 L556.228,102.974 L556.228,101.61 C556.228,96.1548 554.864,91.7602 552.136,88.4264 C549.51,84.9915 545.671,83.2741 540.619,83.2741 Z" id="形状" fill-rule="nonzero"></path>
            <polygon id="路径" fill-rule="nonzero" points="465.343 104.944 421.245 104.944 421.245 149.648 401.242 149.648 401.242 43.8741 421.245 43.8741 421.245 87.2141 465.343 87.2141 465.343 43.8741 485.346 43.8741 485.346 149.648 465.343 149.648"></polygon>
        </g>
    </g>
</svg>